<?xml version="1.0" encoding="UTF-8"?>
<svg xmlns="http://www.w3.org/2000/svg" xmlns:xlink="http://www.w3.org/1999/xlink" width="2496.46pt" height="1664.37pt" viewBox="0 0 2496.46 1664.37" version="1.1">
<defs>
<clipPath id="clip1">
  <path d="M 489.523438 471 L 2093 471 L 2093 1255 L 489.523438 1255 Z M 489.523438 471 "/>
</clipPath>
</defs>
<g id="surface1">
<path style=" stroke:none;fill-rule:nonzero;fill:rgb(14.498901%,14.498901%,15.299988%);fill-opacity:1;" d="M 0 1517.46875 L 0 146.851563 C 0 127.371094 3.734375 108.628906 11.195313 90.648438 C 18.609375 72.621094 29.214844 56.75 43.007813 43 C 56.792969 29.210938 72.675781 18.609375 90.652344 11.148438 C 108.625 3.730469 127.378906 0 146.855469 0 L 2349.660156 0 C 2369.050781 0 2387.800781 3.730469 2405.820313 11.148438 C 2423.839844 18.609375 2439.679688 29.210938 2453.511719 43 C 2467.25 56.75 2477.898438 72.621094 2485.371094 90.648438 C 2492.828125 108.628906 2496.460938 127.371094 2496.460938 146.851563 L 2496.460938 1517.46875 C 2496.460938 1536.949219 2492.828125 1555.699219 2485.371094 1573.71875 C 2477.898438 1591.648438 2467.25 1607.582031 2453.511719 1621.320313 C 2439.679688 1635.070313 2423.839844 1645.621094 2405.820313 1653.089844 C 2387.800781 1660.550781 2369.050781 1664.371094 2349.660156 1664.371094 L 146.855469 1664.371094 C 127.378906 1664.371094 108.625 1660.550781 90.652344 1653.089844 C 72.675781 1645.621094 56.792969 1635.070313 43.007813 1621.320313 C 29.214844 1607.582031 18.609375 1591.648438 11.195313 1573.71875 C 3.734375 1555.699219 0 1536.949219 0 1517.46875 "/>
<g clip-path="url(#clip1)" clip-rule="nonzero">
<path style=" stroke:none;fill-rule:nonzero;fill:rgb(100%,100%,100%);fill-opacity:1;" d="M 489.523438 862.71875 L 489.523438 1254.351563 L 627.765625 1254.351563 C 780.769531 1254.351563 844.386719 1234.789063 890.886719 1174.808594 C 937.394531 1116.101563 944.773438 1064.679688 939.851563 832.136719 C 936.171875 626.539063 933.761719 609.429688 906.816406 565.378906 C 860.3125 489.46875 808.9375 471.128906 636.367188 471.128906 L 489.523438 471.128906 Z M 772.207031 629 C 800.332031 652.25 801.5625 657.171875 801.5625 855.4375 C 801.5625 1047.480469 800.332031 1059.761719 774.664063 1085.519531 C 753.820313 1105 731.800781 1112.378906 688.980469 1112.378906 L 630.230469 1113.558594 L 626.585938 859.082031 L 624.128906 605.738281 L 684.101563 605.738281 C 724.476563 605.738281 752.597656 613.070313 772.207031 629 Z M 1053.671875 502.941406 C 1029.179688 534.761719 1027.960938 550.679688 1027.960938 865.175781 L 1027.960938 1194.378906 L 1058.539063 1223.769531 C 1086.710938 1253.171875 1094.03125 1254.351563 1254.351563 1254.351563 L 1419.589844 1254.351563 L 1419.589844 1121.011719 L 1294.769531 1117.289063 L 1168.710938 1113.558594 L 1168.710938 930.070313 L 1245.800781 926.433594 L 1321.660156 922.699219 L 1321.660156 789.363281 L 1162.570313 789.363281 L 1162.570313 605.738281 L 1419.589844 605.738281 L 1419.589844 471.128906 L 1249.480469 471.128906 C 1079.378906 471.128906 1078.148438 471.128906 1053.671875 502.941406 Z M 1554.199219 644.929688 C 1579.871094 741.585938 1621.460938 899.488281 1647.21875 997.425781 C 1686.351563 1147.871094 1699.820313 1180.910156 1732.859375 1213.949219 C 1756.160156 1238.421875 1784.191406 1254.351563 1802.578125 1254.351563 C 1840.53125 1254.351563 1889.5 1216.398438 1906.691406 1172.351563 C 1918.890625 1140.5 2092.628906 491.929688 2092.628906 477.28125 C 2092.628906 473.589844 2058.328125 471.128906 2016.820313 473.589844 L 1939.640625 477.28125 L 1871.199219 740.351563 C 1828.328125 906.773438 1800.210938 994.878906 1795.300781 979.039063 C 1785.46875 948.457031 1664.328125 482.140625 1664.328125 476.050781 C 1664.328125 473.589844 1628.828125 471.128906 1585.96875 471.128906 L 1507.691406 471.128906 L 1554.199219 644.929688 "/>
</g>
</g>
</svg>
